<svg width="44" height="44" viewBox="0 0 44 44" fill="none" xmlns="http://www.w3.org/2000/svg">
<rect width="44" height="44" rx="12" fill="#28D0AC" fill-opacity="0.2"/>
<path fill-rule="evenodd" clip-rule="evenodd" d="M22.8021 26.2299C22.7049 26.1981 22.6053 26.1718 22.5035 26.1516L23.982 20.5552L23.5317 20.4328C23.4019 20.3975 23.3249 20.2622 23.3597 20.1306L24.7262 14.958C24.761 14.8263 24.8944 14.7482 25.0242 14.7835L25.4744 14.9058L25.4744 14.9058L25.7723 14.9867L25.7723 14.9868L26.2222 15.1091C26.352 15.1443 26.429 15.2796 26.3942 15.4113L25.0277 20.5839C24.9929 20.7155 24.8595 20.7937 24.7297 20.7584L24.2798 20.6361L22.8021 26.2299ZM23.4255 26.5327C23.3226 26.4643 23.2146 26.4031 23.1023 26.3498L25.9564 21.336L25.5796 21.1154C25.4632 21.0473 25.4234 20.8964 25.4906 20.7783L28.1305 16.1407C28.1977 16.0227 28.3465 15.9822 28.4629 16.0504L28.8396 16.271L28.8398 16.2707L29.1602 16.4584L29.1601 16.4586L29.537 16.6793C29.6533 16.7475 29.6932 16.8984 29.626 17.0164L26.9861 21.6541C26.9189 21.7721 26.7701 21.8125 26.6537 21.7444L26.2768 21.5237L23.4255 26.5327ZM23.9505 26.9931C23.8549 26.8837 23.7505 26.7824 23.6385 26.6903L31.747 18.4663L32.0523 18.7759L23.9505 26.9931ZM19.3983 28.6149C19.3969 28.646 19.3959 28.6773 19.3955 28.7087H13.7665V29.2907C13.7665 29.4269 13.6576 29.5374 13.5232 29.5374H8.2433C8.10893 29.5374 8 29.4269 8 29.2907V28.7087V28.6149V28.0327C8 27.8964 8.10893 27.786 8.2433 27.786H13.5232C13.6576 27.786 13.7665 27.8964 13.7665 28.0327V28.6149H19.3983ZM19.4878 28.0437L14.0312 26.5608L13.8867 27.1081C13.8519 27.2397 13.7185 27.3178 13.5887 27.2826L8.48867 25.8966C8.35888 25.8613 8.28185 25.726 8.31663 25.5943L8.46119 25.0472L8.46113 25.0471L8.49305 24.9263L8.49312 24.9263L8.63764 24.3793C8.67241 24.2476 8.80583 24.1695 8.93562 24.2048L14.0356 25.5908C14.1654 25.6261 14.2424 25.7614 14.2077 25.893L14.0632 26.44L19.5233 27.9238C19.5106 27.9634 19.4987 28.0034 19.4878 28.0437ZM19.7405 27.429L9.83694 21.6298L9.91403 21.4944L19.8213 27.2958C19.7931 27.3393 19.7661 27.3837 19.7405 27.429ZM20.1336 26.9014L16.1128 22.8234L15.7398 23.2018C15.6448 23.2981 15.4907 23.2981 15.3957 23.2018L11.6622 19.4151C11.5672 19.3188 11.5672 19.1625 11.6622 19.0662L12.0353 18.6878L12.035 18.6875L12.1658 18.5548L12.1661 18.5551L12.5392 18.1767C12.6342 18.0803 12.7883 18.0803 12.8833 18.1767L16.6168 21.9633C16.7118 22.0597 16.7118 22.2159 16.6168 22.3123L16.2436 22.6907L20.2673 26.7716C20.2212 26.8133 20.1766 26.8566 20.1336 26.9014ZM20.6397 26.4908L17.7899 21.4845L17.3463 21.7443C17.23 21.8124 17.0812 21.772 17.014 21.654L14.374 17.0163C14.3068 16.8983 14.3467 16.7474 14.4631 16.6792L14.9067 16.4195L14.9066 16.4193L15.0935 16.3099L15.0936 16.31L15.5372 16.0503C15.6536 15.9821 15.8024 16.0226 15.8695 16.1406L18.5095 20.7782C18.5767 20.8963 18.5368 21.0472 18.4204 21.1153L17.9769 21.3751L20.8282 26.3841C20.7638 26.4171 20.7009 26.4527 20.6397 26.4908ZM21.8612 26.106V14.4624H22.1387V26.106C22.0928 26.1036 22.0466 26.1023 22 26.1023C21.9535 26.1023 21.9072 26.1036 21.8612 26.106ZM21.4662 26.1579C21.3851 26.175 21.3054 26.1959 21.2273 26.2205L19.7499 20.6278L19.2701 20.7582C19.1403 20.7935 19.0069 20.7153 18.9721 20.5837L17.6055 15.4111C17.5708 15.2794 17.6478 15.1441 17.7776 15.1089L18.9756 14.7833C19.1054 14.748 19.2388 14.8261 19.2736 14.9578L20.6401 20.1304C20.6749 20.262 20.5979 20.3973 20.4681 20.4326L19.9881 20.563L21.4662 26.1579ZM24.595 28.9744C24.6015 28.8986 24.6048 28.8218 24.6048 28.7442C24.6048 28.6098 24.5949 28.4778 24.5758 28.3489H30.2334V28.0327C30.2334 27.8964 30.3424 27.786 30.4767 27.786H35.7567C35.891 27.786 36 27.8964 36 28.0327V28.3489H36V28.9744H36V29.2907C36 29.4269 35.891 29.5374 35.7567 29.5374H30.4767C30.3424 29.5374 30.2334 29.4269 30.2334 29.2907V28.9744H24.595ZM24.5606 28.2572L30.0248 26.7723L30.1135 27.1081C30.1483 27.2397 30.2817 27.3178 30.4115 27.2826L35.5115 25.8966C35.6413 25.8613 35.7183 25.726 35.6835 25.5943L35.3625 24.3793C35.3277 24.2476 35.1943 24.1695 35.0645 24.2048L29.9645 25.5908C29.8347 25.6261 29.7577 25.7614 29.7925 25.893L29.8811 26.2285L24.4009 27.7178C24.4722 27.8891 24.5262 28.0697 24.5606 28.2572ZM24.3393 27.5808C24.2663 27.43 24.1795 27.2874 24.0806 27.1545L29.007 24.2697L28.8203 23.9418C28.7532 23.8238 28.793 23.6729 28.9094 23.6047L33.4819 20.9272C33.5983 20.859 33.7471 20.8995 33.8143 21.0175L34.0009 21.3454L34.001 21.3454L34.2477 21.7787L34.2476 21.7788L34.4344 22.1069C34.5016 22.2249 34.4617 22.3759 34.3454 22.444L29.7728 25.1215C29.6565 25.1897 29.5077 25.1492 29.4405 25.0312L29.2537 24.7031L24.3393 27.5808Z" fill="#28D0AC"/>
</svg>
