<svg width="24" height="22" viewBox="0 0 24 22" fill="none" xmlns="http://www.w3.org/2000/svg">
    <path
        d="M5.50977 21.3828C4.11328 21.3828 3.30273 20.5918 3.30273 19.2246V9.9082L2.0332 10.9824C1.82812 11.1484 1.60352 11.2949 1.33008 11.2949C0.802734 11.2949 0.490234 10.9141 0.490234 10.5137C0.490234 10.2891 0.587891 10.0547 0.802734 9.87891L10.9785 1.33398C11.7109 0.71875 12.6094 0.71875 13.332 1.33398L18.4688 5.65039V3.66797C18.4688 3.23828 18.752 2.96484 19.1719 2.96484H20.2168C20.6465 2.96484 20.9199 3.23828 20.9199 3.66797V7.71094L23.498 9.87891C23.7031 10.0547 23.8008 10.25 23.8008 10.543C23.8008 11.0117 23.4297 11.2949 22.9707 11.2949C22.6973 11.2949 22.4727 11.1484 22.2773 10.9824L20.9199 9.83984V19.2246C20.9199 20.5918 20.1094 21.3828 18.7227 21.3828H5.50977ZM14.9629 13.2676V19.8105H18.3906C19.0059 19.8105 19.3477 19.459 19.3477 18.8242V8.52148L12.502 2.7793C12.2871 2.58398 12.0234 2.58398 11.8086 2.7793L4.875 8.58984V18.8242C4.875 19.459 5.2168 19.8105 5.8418 19.8105H9.32812V13.2676C9.32812 12.8184 9.62109 12.5254 10.0801 12.5254H14.2207C14.6699 12.5254 14.9629 12.8184 14.9629 13.2676Z"
        fill="white" />
</svg>