<svg width="40" height="40" viewBox="0 0 40 40" fill="none" xmlns="http://www.w3.org/2000/svg">
    <path
        d="M21.4733 4.21984C20.8967 3.12984 19.1033 3.12984 18.5267 4.21984L3.52668 32.5532C3.39165 32.8071 3.32471 33.0917 3.33238 33.3792C3.34005 33.6668 3.42206 33.9474 3.57043 34.1938C3.71881 34.4402 3.92847 34.6439 4.17901 34.7852C4.42954 34.9264 4.7124 35.0004 5.00001 34.9998H35C35.2874 35.0004 35.5701 34.9265 35.8205 34.7854C36.0708 34.6442 36.2803 34.4405 36.4286 34.1943C36.5768 33.948 36.6587 33.6676 36.6662 33.3803C36.6738 33.0929 36.6068 32.8086 36.4717 32.5548L21.4733 4.21984ZM21.6667 29.9998H18.3333V26.6665H21.6667V29.9998ZM18.3333 23.3332V14.9998H21.6667L21.6683 23.3332H18.3333Z"
        fill="#FF5050" />
</svg>