<svg width="48" height="48" viewBox="0 0 48 48" fill="none" xmlns="http://www.w3.org/2000/svg">
    <rect x="23" width="2" height="12" rx="1" fill="#C4C4C4" />
    <rect y="25" width="2" height="12" rx="1" transform="rotate(-90 0 25)" fill="#F5B40A" />
    <rect x="12.866" y="45.2847" width="2" height="12" rx="1"
        transform="rotate(-150 12.866 45.2847)" fill="#F5B40A" fill-opacity="0.46" />
    <rect x="36.866" y="44.2847" width="2" height="12" rx="1" transform="rotate(150 36.866 44.2847)"
        fill="#575757" />
    <rect x="45.2847" y="35.134" width="2" height="12" rx="1" transform="rotate(120 45.2847 35.134)"
        fill="#6D6D6D" />
    <rect x="44.2847" y="11.134" width="2" height="12" rx="1" transform="rotate(60 44.2847 11.134)"
        fill="#989898" />
    <rect x="25" y="48" width="2" height="12" rx="1" transform="rotate(180 25 48)" fill="#F5B40A"
        fill-opacity="0.37" />
    <rect x="48" y="23" width="2" height="12" rx="1" transform="rotate(90 48 23)" fill="#828282" />
    <rect x="35.134" y="2.71533" width="2" height="12" rx="1" transform="rotate(30 35.134 2.71533)"
        fill="#AEAEAE" />
    <rect x="11.134" y="3.71533" width="2" height="12" rx="1" transform="rotate(-30 11.134 3.71533)"
        fill="#D9D9D9" />
    <rect x="2.71533" y="12.866" width="2" height="12" rx="1" transform="rotate(-60 2.71533 12.866)"
        fill="#EFEFEF" />
    <rect x="3.71533" y="36.866" width="2" height="12" rx="1"
        transform="rotate(-120 3.71533 36.866)" fill="#F5B40A" fill-opacity="0.6" />
</svg>