<svg width="21" height="20" viewBox="0 0 21 20" fill="none" xmlns="http://www.w3.org/2000/svg">
    <path opacity="0.6"
        d="M20.4023 4.8125C20.4023 5.13477 20.1973 5.38867 19.8652 5.45703L15.4023 6.43359C14.9434 6.53125 14.8457 6.63867 14.8457 7.15625V16.0918C14.8457 18.9336 12.6973 19.9883 11.2617 19.9883C9.64062 19.9883 8.48828 18.9434 8.48828 17.4492C8.48828 15.9746 9.40625 14.9785 11.3594 14.5684L12.9121 14.2461C13.3418 14.1582 13.5664 13.8457 13.5176 13.3672L13.498 2.50781C13.498 1.96094 13.8398 1.61914 14.4648 1.48242L19.4844 0.388672C19.9824 0.291016 20.4023 0.623047 20.4023 1.14062V4.8125ZM1.1543 5.27148C0.783203 5.27148 0.490234 4.96875 0.490234 4.60742C0.490234 4.24609 0.783203 3.95312 1.1543 3.95312H9.88477C10.2461 3.95312 10.5488 4.24609 10.5488 4.60742C10.5488 4.96875 10.2461 5.27148 9.88477 5.27148H1.1543ZM1.1543 8.74805C0.773438 8.74805 0.490234 8.44531 0.490234 8.07422C0.490234 7.71289 0.783203 7.42969 1.1543 7.42969H9.88477C10.2461 7.42969 10.5488 7.71289 10.5488 8.07422C10.5488 8.44531 10.2559 8.74805 9.88477 8.74805H1.1543ZM1.1543 12.2246C0.773438 12.2246 0.490234 11.9316 0.490234 11.5605C0.490234 11.1992 0.783203 10.9062 1.1543 10.9062H9.88477C10.2461 10.9062 10.5488 11.1992 10.5488 11.5605C10.5488 11.9316 10.2559 12.2246 9.88477 12.2246H1.1543Z"
        fill="white" />
</svg>