<svg width="32" height="32" viewBox="0 0 32 32" fill="none" xmlns="http://www.w3.org/2000/svg">
    <path
        d="M6.66667 28C5.93333 28 5.30578 27.7391 4.784 27.2173C4.26222 26.6956 4.00089 26.0676 4 25.3333V6.66667C4 5.93333 4.26133 5.30578 4.784 4.784C5.30667 4.26222 5.93422 4.00089 6.66667 4H25.3333C26.0667 4 26.6947 4.26133 27.2173 4.784C27.74 5.30667 28.0009 5.93422 28 6.66667V25.3333C28 26.0667 27.7391 26.6947 27.2173 27.2173C26.6956 27.74 26.0676 28.0009 25.3333 28H6.66667ZM6.66667 25.3333H11V19.3333H10.6667C10.2889 19.3333 9.97244 19.2053 9.71733 18.9493C9.46222 18.6933 9.33422 18.3769 9.33333 18V6.66667H6.66667V25.3333ZM21 25.3333H25.3333V6.66667H22.6667V18C22.6667 18.3778 22.5387 18.6947 22.2827 18.9507C22.0267 19.2067 21.7102 19.3342 21.3333 19.3333H21V25.3333ZM13 25.3333H19V19.3333H18.6667C18.2889 19.3333 17.9724 19.2053 17.7173 18.9493C17.4622 18.6933 17.3342 18.3769 17.3333 18V6.66667H14.6667V18C14.6667 18.3778 14.5387 18.6947 14.2827 18.9507C14.0267 19.2067 13.7102 19.3342 13.3333 19.3333H13V25.3333Z"
        fill="currentColor" />
</svg>