<svg width="23" height="22" viewBox="0 0 23 22" fill="none" xmlns="http://www.w3.org/2000/svg">
    <path 
        d="M11.7441 20.4609C11.4805 20.4609 11.2363 20.4414 10.9824 20.4219L10.416 21.4863C10.2988 21.7109 10.0938 21.8184 9.83008 21.7891C9.58594 21.7402 9.41016 21.5547 9.38086 21.3008L9.20508 20.1191C8.7168 19.9824 8.24805 19.7969 7.7793 19.6016L6.90039 20.3926C6.71484 20.5684 6.48047 20.5977 6.23633 20.4707C6.02148 20.3438 5.93359 20.1191 5.98242 19.8555L6.22656 18.6934C5.82617 18.4102 5.41602 18.0879 5.05469 17.7266L3.9707 18.1758C3.72656 18.2832 3.50195 18.2246 3.31641 18.0098C3.15039 17.8242 3.13086 17.5801 3.26758 17.3555L3.90234 16.3398C3.61914 15.9395 3.375 15.4902 3.15039 15.0215L1.95898 15.0801C1.70508 15.0996 1.49023 14.9531 1.40234 14.7188C1.33398 14.4648 1.40234 14.2305 1.59766 14.084L2.53516 13.3418C2.4082 12.8633 2.31055 12.3652 2.28125 11.8379L1.13867 11.4766C0.884766 11.3984 0.748047 11.2129 0.748047 10.9492C0.748047 10.6855 0.884766 10.5 1.13867 10.4121L2.28125 10.0508C2.31055 9.5332 2.4082 9.04492 2.53516 8.55664L1.59766 7.81445C1.40234 7.6582 1.32422 7.43359 1.40234 7.18945C1.49023 6.95508 1.70508 6.80859 1.95898 6.82812L3.15039 6.86719C3.375 6.39844 3.61914 5.96875 3.90234 5.54883L3.26758 4.5332C3.13086 4.32812 3.15039 4.08398 3.31641 3.89844C3.50195 3.68359 3.72656 3.63477 3.9707 3.73242L5.05469 4.17188C5.41602 3.82031 5.82617 3.48828 6.22656 3.20508L5.98242 2.05273C5.92383 1.7793 6.02148 1.55469 6.23633 1.4375C6.48047 1.31055 6.71484 1.33008 6.90039 1.51562L7.7793 2.29688C8.24805 2.08203 8.7168 1.92578 9.20508 1.7793L9.38086 0.607422C9.41016 0.353516 9.58594 0.167969 9.83008 0.119141C10.0938 0.0898438 10.3086 0.197266 10.416 0.412109L10.9824 1.47656C11.2461 1.45703 11.4805 1.44727 11.7441 1.44727C11.998 1.44727 12.2422 1.45703 12.5059 1.47656L13.0625 0.412109C13.1699 0.197266 13.3848 0.0898438 13.6484 0.119141C13.8926 0.167969 14.0684 0.353516 14.1074 0.607422L14.2734 1.7793C14.7617 1.92578 15.2402 2.0918 15.6992 2.29688L16.5781 1.51562C16.7637 1.33008 16.998 1.30078 17.2422 1.4375C17.457 1.55469 17.5547 1.7793 17.4961 2.05273L17.252 3.20508C17.6621 3.48828 18.0625 3.82031 18.4238 4.17188L19.5078 3.73242C19.752 3.63477 19.9863 3.68359 20.1719 3.89844C20.3281 4.08398 20.3477 4.32812 20.2109 4.5332L19.5762 5.54883C19.8691 5.96875 20.1035 6.39844 20.3281 6.86719L21.5293 6.82812C21.7832 6.80859 21.9883 6.95508 22.0762 7.18945C22.1543 7.43359 22.0762 7.6582 21.8809 7.81445L20.9434 8.55664C21.0703 9.04492 21.168 9.5332 21.2168 10.0605L22.3398 10.4121C22.5938 10.5 22.7402 10.6855 22.7402 10.9492C22.7402 11.2129 22.5938 11.3984 22.3398 11.4766L21.2168 11.8379C21.168 12.3652 21.0703 12.8633 20.9434 13.3418L21.8809 14.084C22.0859 14.2402 22.1543 14.4746 22.0762 14.7188C21.9883 14.9531 21.7832 15.0996 21.5293 15.0801L20.3281 15.0215C20.1035 15.4902 19.8691 15.9395 19.5762 16.3398L20.2109 17.3555C20.3477 17.5801 20.3379 17.8242 20.1719 18.0098C19.9863 18.2246 19.752 18.2832 19.5078 18.1758L18.4238 17.7266C18.0625 18.0879 17.6621 18.4102 17.252 18.6934L17.4961 19.8555C17.5449 20.1191 17.457 20.3438 17.2422 20.4707C16.998 20.5977 16.7637 20.5684 16.5781 20.3926L15.6992 19.6016C15.2402 19.7969 14.7617 19.9824 14.2734 20.1191L14.1074 21.3008C14.0684 21.5547 13.9023 21.7402 13.6582 21.7891C13.3848 21.8184 13.1797 21.7109 13.0625 21.4863L12.5059 20.4219C12.2422 20.4414 11.998 20.4609 11.7441 20.4609ZM11.7246 8.41016C12.9062 8.41016 13.9023 9.21094 14.1953 10.3145H19.6445C19.332 6.1543 16.002 2.92188 11.7441 2.92188C10.4746 2.92188 9.2832 3.21484 8.22852 3.73242L11.0215 8.50781C11.2461 8.43945 11.4805 8.41016 11.7246 8.41016ZM3.81445 10.959C3.81445 13.6445 5.07422 16.0078 7.05664 17.4629L9.91797 12.7852C9.44922 12.3164 9.16602 11.6816 9.16602 10.9688C9.16602 10.2559 9.44922 9.61133 9.91797 9.15234L7.125 4.38672C5.10352 5.8418 3.81445 8.23438 3.81445 10.959ZM11.7246 12.1504C12.3887 12.1504 12.8965 11.6328 12.8965 10.9688C12.8965 10.3047 12.3887 9.78711 11.7246 9.78711C11.0508 9.78711 10.543 10.3047 10.543 10.9688C10.543 11.6328 11.0508 12.1504 11.7246 12.1504ZM11.7441 18.9863C16.0117 18.9863 19.3516 15.7344 19.6543 11.5742H14.2051C13.9316 12.6973 12.9258 13.5273 11.7246 13.5273C11.4805 13.5273 11.2461 13.4883 11.0312 13.4297L8.15039 18.1367C9.22461 18.6836 10.4453 18.9863 11.7441 18.9863Z"
        fill="currentColor" />
</svg>